<svg width="32" height="32" viewBox="0 0 32 32" fill="none" xmlns="http://www.w3.org/2000/svg">
<path d="M7.33333 24C7.02013 23.9969 6.71803 23.8836 6.48 23.68C5.11206 22.6035 4.00049 21.2363 3.22569 19.6775C2.4509 18.1187 2.03224 16.4071 2 14.6667C2.03224 12.9262 2.4509 11.2147 3.22569 9.65587C4.00049 8.09705 5.11206 6.72991 6.48 5.65335C6.60906 5.51689 6.76549 5.40924 6.93905 5.33744C7.11262 5.26564 7.29939 5.23133 7.48713 5.23674C7.67488 5.24215 7.85937 5.28717 8.0285 5.36884C8.19764 5.45052 8.34762 5.567 8.4686 5.71067C8.58958 5.85434 8.67885 6.02195 8.73055 6.20252C8.78225 6.38309 8.79521 6.57255 8.7686 6.75847C8.74198 6.9444 8.67638 7.12261 8.57609 7.28142C8.47581 7.44023 8.3431 7.57607 8.18667 7.68002C7.12255 8.51434 6.25543 9.57297 5.64703 10.7806C5.03863 11.9881 4.7039 13.315 4.66667 14.6667C4.7039 16.0184 5.03863 17.3452 5.64703 18.5528C6.25543 19.7604 7.12255 20.819 8.18667 21.6534C8.45541 21.8791 8.62433 22.2016 8.65678 22.5511C8.68923 22.9005 8.58259 23.2487 8.36 23.52C8.23464 23.6705 8.07765 23.7916 7.9002 23.8745C7.72276 23.9575 7.52921 24.0003 7.33333 24ZM16 9.33335C16.4504 9.34026 16.8983 9.40296 17.3333 9.52002V4.00002C17.3333 3.6464 17.1929 3.30726 16.9428 3.05721C16.6928 2.80716 16.3536 2.66669 16 2.66669C15.6464 2.66669 15.3072 2.80716 15.0572 3.05721C14.8071 3.30726 14.6667 3.6464 14.6667 4.00002V9.52002C15.1017 9.40296 15.5495 9.34026 16 9.33335ZM16 20C15.5495 19.9931 15.1017 19.9304 14.6667 19.8134V26.6667C14.6667 27.0203 14.8071 27.3594 15.0572 27.6095C15.3072 27.8595 15.6464 28 16 28C16.3536 28 16.6928 27.8595 16.9428 27.6095C17.1929 27.3594 17.3333 27.0203 17.3333 26.6667V19.8134C16.8983 19.9304 16.4504 19.9931 16 20ZM21.3333 21.3334C21.1374 21.3337 20.9439 21.2908 20.7665 21.2079C20.589 21.1249 20.432 21.0039 20.3067 20.8534C20.0841 20.582 19.9774 20.2339 20.0099 19.8844C20.0423 19.535 20.2113 19.2124 20.48 18.9867C21.1389 18.471 21.6763 17.8166 22.0542 17.0701C22.4321 16.3235 22.6412 15.503 22.6667 14.6667C22.6412 13.8303 22.4321 13.0098 22.0542 12.2633C21.6763 11.5167 21.1389 10.8624 20.48 10.3467C20.3236 10.2427 20.1909 10.1069 20.0906 9.94809C19.9903 9.78928 19.9247 9.61107 19.8981 9.42514C19.8714 9.23921 19.8844 9.04976 19.9361 8.86919C19.9878 8.68862 20.0771 8.52101 20.1981 8.37734C20.319 8.23367 20.469 8.11718 20.6382 8.03551C20.8073 7.95383 20.9918 7.90882 21.1795 7.90341C21.3673 7.89799 21.554 7.93231 21.7276 8.00411C21.9012 8.0759 22.0576 8.18356 22.1867 8.32002C23.1487 9.07863 23.9301 10.0416 24.4743 11.1392C25.0185 12.2369 25.3119 13.4417 25.3333 14.6667C25.3119 15.8916 25.0185 17.0965 24.4743 18.1942C23.9301 19.2918 23.1487 20.2547 22.1867 21.0134C21.9486 21.2169 21.6465 21.3302 21.3333 21.3334Z" fill="#233D4D"/>
<path d="M10.6667 21.3333C10.3535 21.3302 10.0514 21.2169 9.81341 21.0133C8.8514 20.2547 8.07002 19.2918 7.52581 18.1941C6.98161 17.0965 6.68818 15.8916 6.66675 14.6666C6.68818 13.4417 6.98161 12.2368 7.52581 11.1392C8.07002 10.0415 8.8514 9.07859 9.81341 8.31998C9.94247 8.18352 10.0989 8.07586 10.2725 8.00407C10.446 7.93227 10.6328 7.89795 10.8205 7.90337C11.0083 7.90878 11.1928 7.95379 11.3619 8.03547C11.5311 8.11714 11.681 8.23363 11.802 8.3773C11.923 8.52097 12.0123 8.68858 12.064 8.86915C12.1157 9.04972 12.1286 9.23917 12.102 9.4251C12.0754 9.61103 12.0098 9.78924 11.9095 9.94805C11.8092 10.1069 11.6765 10.2427 11.5201 10.3466C10.8612 10.8624 10.3238 11.5167 9.94587 12.2632C9.56799 13.0098 9.3589 13.8303 9.33341 14.6666C9.3589 15.503 9.56799 16.3235 9.94587 17.0701C10.3238 17.8166 10.8612 18.4709 11.5201 18.9866C11.7888 19.2124 11.9577 19.5349 11.9902 19.8844C12.0226 20.2338 11.916 20.582 11.6934 20.8533C11.5681 21.0038 11.4111 21.1249 11.2336 21.2078C11.0562 21.2908 10.8626 21.3336 10.6667 21.3333ZM24.6667 24C24.4709 24.0003 24.2773 23.9575 24.0999 23.8745C23.9224 23.7915 23.7654 23.6705 23.6401 23.52C23.4175 23.2486 23.3109 22.9005 23.3433 22.551C23.3757 22.2016 23.5447 21.879 23.8134 21.6533C24.8775 20.819 25.7446 19.7604 26.353 18.5528C26.9615 17.3452 27.2962 16.0183 27.3334 14.6666C27.2962 13.315 26.9615 11.9881 26.353 10.7805C25.7446 9.57293 24.8775 8.5143 23.8134 7.67998C23.657 7.57603 23.5243 7.44019 23.424 7.28138C23.3237 7.12257 23.2581 6.94436 23.2315 6.75843C23.2049 6.5725 23.2178 6.38305 23.2695 6.20248C23.3212 6.02191 23.4105 5.8543 23.5315 5.71063C23.6525 5.56696 23.8024 5.45047 23.9716 5.3688C24.1407 5.28713 24.3252 5.24211 24.5129 5.2367C24.7007 5.23129 24.8875 5.2656 25.061 5.3374C25.2346 5.4092 25.391 5.51685 25.5201 5.65331C26.888 6.72987 27.9996 8.09701 28.7744 9.65583C29.5492 11.2146 29.9678 12.9262 30.0001 14.6666C29.9678 16.4071 29.5492 18.1186 28.7744 19.6775C27.9996 21.2363 26.888 22.6034 25.5201 23.68C25.282 23.8836 24.9799 23.9969 24.6667 24ZM16.0001 16C15.7364 16 15.4786 15.9218 15.2593 15.7753C15.0401 15.6288 14.8692 15.4205 14.7682 15.1769C14.6673 14.9333 14.6409 14.6652 14.6924 14.4065C14.7438 14.1479 14.8708 13.9103 15.0573 13.7238C15.2437 13.5374 15.4813 13.4104 15.74 13.3589C15.9986 13.3075 16.2667 13.3339 16.5103 13.4348C16.754 13.5357 16.9622 13.7066 17.1087 13.9259C17.2552 14.1452 17.3334 14.4029 17.3334 14.6666C17.3334 15.0203 17.1929 15.3594 16.9429 15.6095C16.6928 15.8595 16.3537 16 16.0001 16Z" fill="#233D4D"/>
</svg>
